<mxfile host="app.diagrams.net" agent="Mozilla/5.0 (Windows NT 10.0; Win64; x64) AppleWebKit/537.36 (KHTML, like Gecko) Chrome/140.0.0.0 Safari/537.36 Edg/140.0.0.0" version="28.2.3" pages="2">
  <diagram name="Leht-1" id="GAfX-9tSkz7h_Jj7kb10">
    <mxGraphModel dx="1880" dy="1211" grid="1" gridSize="10" guides="1" tooltips="1" connect="1" arrows="1" fold="1" page="1" pageScale="1" pageWidth="827" pageHeight="1169" math="0" shadow="0">
      <root>
        <mxCell id="0" />
        <mxCell id="1" parent="0" />
        <mxCell id="IFmeHHee4sX_I05L71Eq-2" value="Eesti Orienteerumisliidu edetabel" style="rounded=0;whiteSpace=wrap;html=1;" vertex="1" parent="1">
          <mxGeometry x="30" y="20" width="700" height="60" as="geometry" />
        </mxCell>
        <mxCell id="IFmeHHee4sX_I05L71Eq-3" value="2025" style="rounded=1;whiteSpace=wrap;html=1;" vertex="1" parent="1">
          <mxGeometry x="30" y="100" width="80" height="40" as="geometry" />
        </mxCell>
        <mxCell id="IFmeHHee4sX_I05L71Eq-4" value="Orienteerumisjooksu edetabel" style="text;html=1;align=center;verticalAlign=middle;resizable=0;points=[];autosize=1;strokeColor=none;fillColor=none;fontSize=16;" vertex="1" parent="1">
          <mxGeometry x="120" y="105" width="240" height="30" as="geometry" />
        </mxCell>
        <mxCell id="IFmeHHee4sX_I05L71Eq-5" value="" style="rounded=1;whiteSpace=wrap;html=1;" vertex="1" parent="1">
          <mxGeometry x="30" y="200" width="320" height="140" as="geometry" />
        </mxCell>
        <mxCell id="IFmeHHee4sX_I05L71Eq-6" value="" style="ellipse;whiteSpace=wrap;html=1;aspect=fixed;" vertex="1" parent="1">
          <mxGeometry x="50" y="210" width="80" height="80" as="geometry" />
        </mxCell>
        <mxCell id="IFmeHHee4sX_I05L71Eq-7" value="2345p" style="text;html=1;align=center;verticalAlign=middle;resizable=0;points=[];autosize=1;strokeColor=none;fillColor=none;fontSize=20;" vertex="1" parent="1">
          <mxGeometry x="210" y="240" width="80" height="40" as="geometry" />
        </mxCell>
        <mxCell id="IFmeHHee4sX_I05L71Eq-8" value="" style="shape=table;startSize=0;container=1;collapsible=0;childLayout=tableLayout;fontSize=16;" vertex="1" parent="1">
          <mxGeometry x="30" y="370" width="330" height="120" as="geometry" />
        </mxCell>
        <mxCell id="IFmeHHee4sX_I05L71Eq-9" value="" style="shape=tableRow;horizontal=0;startSize=0;swimlaneHead=0;swimlaneBody=0;strokeColor=inherit;top=0;left=0;bottom=0;right=0;collapsible=0;dropTarget=0;fillColor=none;points=[[0,0.5],[1,0.5]];portConstraint=eastwest;fontSize=16;" vertex="1" parent="IFmeHHee4sX_I05L71Eq-8">
          <mxGeometry width="330" height="40" as="geometry" />
        </mxCell>
        <mxCell id="IFmeHHee4sX_I05L71Eq-10" value="2" style="shape=partialRectangle;html=1;whiteSpace=wrap;connectable=0;strokeColor=inherit;overflow=hidden;fillColor=none;top=0;left=0;bottom=0;right=0;pointerEvents=1;fontSize=16;" vertex="1" parent="IFmeHHee4sX_I05L71Eq-9">
          <mxGeometry width="44" height="40" as="geometry">
            <mxRectangle width="44" height="40" as="alternateBounds" />
          </mxGeometry>
        </mxCell>
        <mxCell id="IFmeHHee4sX_I05L71Eq-11" value="Top 2" style="shape=partialRectangle;html=1;whiteSpace=wrap;connectable=0;strokeColor=inherit;overflow=hidden;fillColor=none;top=0;left=0;bottom=0;right=0;pointerEvents=1;fontSize=16;align=left;" vertex="1" parent="IFmeHHee4sX_I05L71Eq-9">
          <mxGeometry x="44" width="220" height="40" as="geometry">
            <mxRectangle width="220" height="40" as="alternateBounds" />
          </mxGeometry>
        </mxCell>
        <mxCell id="IFmeHHee4sX_I05L71Eq-12" value="2300" style="shape=partialRectangle;html=1;whiteSpace=wrap;connectable=0;strokeColor=inherit;overflow=hidden;fillColor=none;top=0;left=0;bottom=0;right=0;pointerEvents=1;fontSize=16;" vertex="1" parent="IFmeHHee4sX_I05L71Eq-9">
          <mxGeometry x="264" width="66" height="40" as="geometry">
            <mxRectangle width="66" height="40" as="alternateBounds" />
          </mxGeometry>
        </mxCell>
        <mxCell id="IFmeHHee4sX_I05L71Eq-13" value="" style="shape=tableRow;horizontal=0;startSize=0;swimlaneHead=0;swimlaneBody=0;strokeColor=inherit;top=0;left=0;bottom=0;right=0;collapsible=0;dropTarget=0;fillColor=none;points=[[0,0.5],[1,0.5]];portConstraint=eastwest;fontSize=16;" vertex="1" parent="IFmeHHee4sX_I05L71Eq-8">
          <mxGeometry y="40" width="330" height="40" as="geometry" />
        </mxCell>
        <mxCell id="IFmeHHee4sX_I05L71Eq-14" value="3" style="shape=partialRectangle;html=1;whiteSpace=wrap;connectable=0;strokeColor=inherit;overflow=hidden;fillColor=none;top=0;left=0;bottom=0;right=0;pointerEvents=1;fontSize=16;" vertex="1" parent="IFmeHHee4sX_I05L71Eq-13">
          <mxGeometry width="44" height="40" as="geometry">
            <mxRectangle width="44" height="40" as="alternateBounds" />
          </mxGeometry>
        </mxCell>
        <mxCell id="IFmeHHee4sX_I05L71Eq-15" value="Top 3" style="shape=partialRectangle;html=1;whiteSpace=wrap;connectable=0;strokeColor=inherit;overflow=hidden;fillColor=none;top=0;left=0;bottom=0;right=0;pointerEvents=1;fontSize=16;align=left;" vertex="1" parent="IFmeHHee4sX_I05L71Eq-13">
          <mxGeometry x="44" width="220" height="40" as="geometry">
            <mxRectangle width="220" height="40" as="alternateBounds" />
          </mxGeometry>
        </mxCell>
        <mxCell id="IFmeHHee4sX_I05L71Eq-16" value="2200" style="shape=partialRectangle;html=1;whiteSpace=wrap;connectable=0;strokeColor=inherit;overflow=hidden;fillColor=none;top=0;left=0;bottom=0;right=0;pointerEvents=1;fontSize=16;" vertex="1" parent="IFmeHHee4sX_I05L71Eq-13">
          <mxGeometry x="264" width="66" height="40" as="geometry">
            <mxRectangle width="66" height="40" as="alternateBounds" />
          </mxGeometry>
        </mxCell>
        <mxCell id="IFmeHHee4sX_I05L71Eq-17" value="" style="shape=tableRow;horizontal=0;startSize=0;swimlaneHead=0;swimlaneBody=0;strokeColor=inherit;top=0;left=0;bottom=0;right=0;collapsible=0;dropTarget=0;fillColor=none;points=[[0,0.5],[1,0.5]];portConstraint=eastwest;fontSize=16;" vertex="1" parent="IFmeHHee4sX_I05L71Eq-8">
          <mxGeometry y="80" width="330" height="40" as="geometry" />
        </mxCell>
        <mxCell id="IFmeHHee4sX_I05L71Eq-18" value="10" style="shape=partialRectangle;html=1;whiteSpace=wrap;connectable=0;strokeColor=inherit;overflow=hidden;fillColor=none;top=0;left=0;bottom=0;right=0;pointerEvents=1;fontSize=16;" vertex="1" parent="IFmeHHee4sX_I05L71Eq-17">
          <mxGeometry width="44" height="40" as="geometry">
            <mxRectangle width="44" height="40" as="alternateBounds" />
          </mxGeometry>
        </mxCell>
        <mxCell id="IFmeHHee4sX_I05L71Eq-19" value="top 10" style="shape=partialRectangle;html=1;whiteSpace=wrap;connectable=0;strokeColor=inherit;overflow=hidden;fillColor=none;top=0;left=0;bottom=0;right=0;pointerEvents=1;fontSize=16;align=left;" vertex="1" parent="IFmeHHee4sX_I05L71Eq-17">
          <mxGeometry x="44" width="220" height="40" as="geometry">
            <mxRectangle width="220" height="40" as="alternateBounds" />
          </mxGeometry>
        </mxCell>
        <mxCell id="IFmeHHee4sX_I05L71Eq-20" value="1677" style="shape=partialRectangle;html=1;whiteSpace=wrap;connectable=0;strokeColor=inherit;overflow=hidden;fillColor=none;top=0;left=0;bottom=0;right=0;pointerEvents=1;fontSize=16;" vertex="1" parent="IFmeHHee4sX_I05L71Eq-17">
          <mxGeometry x="264" width="66" height="40" as="geometry">
            <mxRectangle width="66" height="40" as="alternateBounds" />
          </mxGeometry>
        </mxCell>
        <mxCell id="IFmeHHee4sX_I05L71Eq-21" value="Edetabeli VÃµitja" style="text;html=1;align=center;verticalAlign=middle;resizable=0;points=[];autosize=1;strokeColor=none;fillColor=none;fontSize=14;" vertex="1" parent="1">
          <mxGeometry x="55" y="300" width="120" height="30" as="geometry" />
        </mxCell>
        <mxCell id="IFmeHHee4sX_I05L71Eq-22" value="Mehed" style="text;html=1;align=center;verticalAlign=middle;resizable=0;points=[];autosize=1;strokeColor=none;fillColor=none;fontSize=14;" vertex="1" parent="1">
          <mxGeometry x="25" y="160" width="70" height="30" as="geometry" />
        </mxCell>
        <mxCell id="IFmeHHee4sX_I05L71Eq-23" value="Vaata kogu edetabelit" style="text;html=1;align=center;verticalAlign=middle;resizable=0;points=[];autosize=1;strokeColor=none;fillColor=none;" vertex="1" parent="1">
          <mxGeometry x="220" y="490" width="140" height="30" as="geometry" />
        </mxCell>
        <mxCell id="IFmeHHee4sX_I05L71Eq-24" value="" style="rounded=1;whiteSpace=wrap;html=1;" vertex="1" parent="1">
          <mxGeometry x="440" y="200" width="320" height="140" as="geometry" />
        </mxCell>
        <mxCell id="IFmeHHee4sX_I05L71Eq-25" value="" style="ellipse;whiteSpace=wrap;html=1;aspect=fixed;" vertex="1" parent="1">
          <mxGeometry x="460" y="210" width="80" height="80" as="geometry" />
        </mxCell>
        <mxCell id="IFmeHHee4sX_I05L71Eq-26" value="2345p" style="text;html=1;align=center;verticalAlign=middle;resizable=0;points=[];autosize=1;strokeColor=none;fillColor=none;fontSize=20;" vertex="1" parent="1">
          <mxGeometry x="620" y="240" width="80" height="40" as="geometry" />
        </mxCell>
        <mxCell id="IFmeHHee4sX_I05L71Eq-27" value="" style="shape=table;startSize=0;container=1;collapsible=0;childLayout=tableLayout;fontSize=16;" vertex="1" parent="1">
          <mxGeometry x="440" y="370" width="330" height="120" as="geometry" />
        </mxCell>
        <mxCell id="IFmeHHee4sX_I05L71Eq-28" value="" style="shape=tableRow;horizontal=0;startSize=0;swimlaneHead=0;swimlaneBody=0;strokeColor=inherit;top=0;left=0;bottom=0;right=0;collapsible=0;dropTarget=0;fillColor=none;points=[[0,0.5],[1,0.5]];portConstraint=eastwest;fontSize=16;" vertex="1" parent="IFmeHHee4sX_I05L71Eq-27">
          <mxGeometry width="330" height="40" as="geometry" />
        </mxCell>
        <mxCell id="IFmeHHee4sX_I05L71Eq-29" value="2" style="shape=partialRectangle;html=1;whiteSpace=wrap;connectable=0;strokeColor=inherit;overflow=hidden;fillColor=none;top=0;left=0;bottom=0;right=0;pointerEvents=1;fontSize=16;" vertex="1" parent="IFmeHHee4sX_I05L71Eq-28">
          <mxGeometry width="44" height="40" as="geometry">
            <mxRectangle width="44" height="40" as="alternateBounds" />
          </mxGeometry>
        </mxCell>
        <mxCell id="IFmeHHee4sX_I05L71Eq-30" value="Top 2" style="shape=partialRectangle;html=1;whiteSpace=wrap;connectable=0;strokeColor=inherit;overflow=hidden;fillColor=none;top=0;left=0;bottom=0;right=0;pointerEvents=1;fontSize=16;align=left;" vertex="1" parent="IFmeHHee4sX_I05L71Eq-28">
          <mxGeometry x="44" width="220" height="40" as="geometry">
            <mxRectangle width="220" height="40" as="alternateBounds" />
          </mxGeometry>
        </mxCell>
        <mxCell id="IFmeHHee4sX_I05L71Eq-31" value="2300" style="shape=partialRectangle;html=1;whiteSpace=wrap;connectable=0;strokeColor=inherit;overflow=hidden;fillColor=none;top=0;left=0;bottom=0;right=0;pointerEvents=1;fontSize=16;" vertex="1" parent="IFmeHHee4sX_I05L71Eq-28">
          <mxGeometry x="264" width="66" height="40" as="geometry">
            <mxRectangle width="66" height="40" as="alternateBounds" />
          </mxGeometry>
        </mxCell>
        <mxCell id="IFmeHHee4sX_I05L71Eq-32" value="" style="shape=tableRow;horizontal=0;startSize=0;swimlaneHead=0;swimlaneBody=0;strokeColor=inherit;top=0;left=0;bottom=0;right=0;collapsible=0;dropTarget=0;fillColor=none;points=[[0,0.5],[1,0.5]];portConstraint=eastwest;fontSize=16;" vertex="1" parent="IFmeHHee4sX_I05L71Eq-27">
          <mxGeometry y="40" width="330" height="40" as="geometry" />
        </mxCell>
        <mxCell id="IFmeHHee4sX_I05L71Eq-33" value="3" style="shape=partialRectangle;html=1;whiteSpace=wrap;connectable=0;strokeColor=inherit;overflow=hidden;fillColor=none;top=0;left=0;bottom=0;right=0;pointerEvents=1;fontSize=16;" vertex="1" parent="IFmeHHee4sX_I05L71Eq-32">
          <mxGeometry width="44" height="40" as="geometry">
            <mxRectangle width="44" height="40" as="alternateBounds" />
          </mxGeometry>
        </mxCell>
        <mxCell id="IFmeHHee4sX_I05L71Eq-34" value="Top 3" style="shape=partialRectangle;html=1;whiteSpace=wrap;connectable=0;strokeColor=inherit;overflow=hidden;fillColor=none;top=0;left=0;bottom=0;right=0;pointerEvents=1;fontSize=16;align=left;" vertex="1" parent="IFmeHHee4sX_I05L71Eq-32">
          <mxGeometry x="44" width="220" height="40" as="geometry">
            <mxRectangle width="220" height="40" as="alternateBounds" />
          </mxGeometry>
        </mxCell>
        <mxCell id="IFmeHHee4sX_I05L71Eq-35" value="2200" style="shape=partialRectangle;html=1;whiteSpace=wrap;connectable=0;strokeColor=inherit;overflow=hidden;fillColor=none;top=0;left=0;bottom=0;right=0;pointerEvents=1;fontSize=16;" vertex="1" parent="IFmeHHee4sX_I05L71Eq-32">
          <mxGeometry x="264" width="66" height="40" as="geometry">
            <mxRectangle width="66" height="40" as="alternateBounds" />
          </mxGeometry>
        </mxCell>
        <mxCell id="IFmeHHee4sX_I05L71Eq-36" value="" style="shape=tableRow;horizontal=0;startSize=0;swimlaneHead=0;swimlaneBody=0;strokeColor=inherit;top=0;left=0;bottom=0;right=0;collapsible=0;dropTarget=0;fillColor=none;points=[[0,0.5],[1,0.5]];portConstraint=eastwest;fontSize=16;" vertex="1" parent="IFmeHHee4sX_I05L71Eq-27">
          <mxGeometry y="80" width="330" height="40" as="geometry" />
        </mxCell>
        <mxCell id="IFmeHHee4sX_I05L71Eq-37" value="10" style="shape=partialRectangle;html=1;whiteSpace=wrap;connectable=0;strokeColor=inherit;overflow=hidden;fillColor=none;top=0;left=0;bottom=0;right=0;pointerEvents=1;fontSize=16;" vertex="1" parent="IFmeHHee4sX_I05L71Eq-36">
          <mxGeometry width="44" height="40" as="geometry">
            <mxRectangle width="44" height="40" as="alternateBounds" />
          </mxGeometry>
        </mxCell>
        <mxCell id="IFmeHHee4sX_I05L71Eq-38" value="top 10" style="shape=partialRectangle;html=1;whiteSpace=wrap;connectable=0;strokeColor=inherit;overflow=hidden;fillColor=none;top=0;left=0;bottom=0;right=0;pointerEvents=1;fontSize=16;align=left;" vertex="1" parent="IFmeHHee4sX_I05L71Eq-36">
          <mxGeometry x="44" width="220" height="40" as="geometry">
            <mxRectangle width="220" height="40" as="alternateBounds" />
          </mxGeometry>
        </mxCell>
        <mxCell id="IFmeHHee4sX_I05L71Eq-39" value="1677" style="shape=partialRectangle;html=1;whiteSpace=wrap;connectable=0;strokeColor=inherit;overflow=hidden;fillColor=none;top=0;left=0;bottom=0;right=0;pointerEvents=1;fontSize=16;" vertex="1" parent="IFmeHHee4sX_I05L71Eq-36">
          <mxGeometry x="264" width="66" height="40" as="geometry">
            <mxRectangle width="66" height="40" as="alternateBounds" />
          </mxGeometry>
        </mxCell>
        <mxCell id="IFmeHHee4sX_I05L71Eq-40" value="Edetabeli VÃµitja" style="text;html=1;align=center;verticalAlign=middle;resizable=0;points=[];autosize=1;strokeColor=none;fillColor=none;fontSize=14;" vertex="1" parent="1">
          <mxGeometry x="465" y="300" width="120" height="30" as="geometry" />
        </mxCell>
        <mxCell id="IFmeHHee4sX_I05L71Eq-41" value="Vaata kogu edetabelit" style="text;html=1;align=center;verticalAlign=middle;resizable=0;points=[];autosize=1;strokeColor=none;fillColor=none;" vertex="1" parent="1">
          <mxGeometry x="630" y="490" width="140" height="30" as="geometry" />
        </mxCell>
        <mxCell id="IFmeHHee4sX_I05L71Eq-42" value="Naised" style="text;html=1;align=center;verticalAlign=middle;resizable=0;points=[];autosize=1;strokeColor=none;fillColor=none;fontSize=14;" vertex="1" parent="1">
          <mxGeometry x="440" y="160" width="70" height="30" as="geometry" />
        </mxCell>
        <mxCell id="IFmeHHee4sX_I05L71Eq-84" value="2025" style="rounded=1;whiteSpace=wrap;html=1;" vertex="1" parent="1">
          <mxGeometry x="30" y="550" width="80" height="40" as="geometry" />
        </mxCell>
        <mxCell id="IFmeHHee4sX_I05L71Eq-85" value="Orienteerumisjooksu sprindi edetabel" style="text;html=1;align=center;verticalAlign=middle;resizable=0;points=[];autosize=1;strokeColor=none;fillColor=none;fontSize=16;" vertex="1" parent="1">
          <mxGeometry x="124" y="555" width="290" height="30" as="geometry" />
        </mxCell>
        <mxCell id="IFmeHHee4sX_I05L71Eq-86" value="" style="rounded=1;whiteSpace=wrap;html=1;" vertex="1" parent="1">
          <mxGeometry x="30" y="650" width="320" height="140" as="geometry" />
        </mxCell>
        <mxCell id="IFmeHHee4sX_I05L71Eq-87" value="" style="ellipse;whiteSpace=wrap;html=1;aspect=fixed;" vertex="1" parent="1">
          <mxGeometry x="50" y="660" width="80" height="80" as="geometry" />
        </mxCell>
        <mxCell id="IFmeHHee4sX_I05L71Eq-88" value="2345p" style="text;html=1;align=center;verticalAlign=middle;resizable=0;points=[];autosize=1;strokeColor=none;fillColor=none;fontSize=20;" vertex="1" parent="1">
          <mxGeometry x="210" y="690" width="80" height="40" as="geometry" />
        </mxCell>
        <mxCell id="IFmeHHee4sX_I05L71Eq-89" value="" style="shape=table;startSize=0;container=1;collapsible=0;childLayout=tableLayout;fontSize=16;" vertex="1" parent="1">
          <mxGeometry x="30" y="820" width="330" height="120" as="geometry" />
        </mxCell>
        <mxCell id="IFmeHHee4sX_I05L71Eq-90" value="" style="shape=tableRow;horizontal=0;startSize=0;swimlaneHead=0;swimlaneBody=0;strokeColor=inherit;top=0;left=0;bottom=0;right=0;collapsible=0;dropTarget=0;fillColor=none;points=[[0,0.5],[1,0.5]];portConstraint=eastwest;fontSize=16;" vertex="1" parent="IFmeHHee4sX_I05L71Eq-89">
          <mxGeometry width="330" height="40" as="geometry" />
        </mxCell>
        <mxCell id="IFmeHHee4sX_I05L71Eq-91" value="2" style="shape=partialRectangle;html=1;whiteSpace=wrap;connectable=0;strokeColor=inherit;overflow=hidden;fillColor=none;top=0;left=0;bottom=0;right=0;pointerEvents=1;fontSize=16;" vertex="1" parent="IFmeHHee4sX_I05L71Eq-90">
          <mxGeometry width="44" height="40" as="geometry">
            <mxRectangle width="44" height="40" as="alternateBounds" />
          </mxGeometry>
        </mxCell>
        <mxCell id="IFmeHHee4sX_I05L71Eq-92" value="Top 2" style="shape=partialRectangle;html=1;whiteSpace=wrap;connectable=0;strokeColor=inherit;overflow=hidden;fillColor=none;top=0;left=0;bottom=0;right=0;pointerEvents=1;fontSize=16;align=left;" vertex="1" parent="IFmeHHee4sX_I05L71Eq-90">
          <mxGeometry x="44" width="220" height="40" as="geometry">
            <mxRectangle width="220" height="40" as="alternateBounds" />
          </mxGeometry>
        </mxCell>
        <mxCell id="IFmeHHee4sX_I05L71Eq-93" value="2300" style="shape=partialRectangle;html=1;whiteSpace=wrap;connectable=0;strokeColor=inherit;overflow=hidden;fillColor=none;top=0;left=0;bottom=0;right=0;pointerEvents=1;fontSize=16;" vertex="1" parent="IFmeHHee4sX_I05L71Eq-90">
          <mxGeometry x="264" width="66" height="40" as="geometry">
            <mxRectangle width="66" height="40" as="alternateBounds" />
          </mxGeometry>
        </mxCell>
        <mxCell id="IFmeHHee4sX_I05L71Eq-94" value="" style="shape=tableRow;horizontal=0;startSize=0;swimlaneHead=0;swimlaneBody=0;strokeColor=inherit;top=0;left=0;bottom=0;right=0;collapsible=0;dropTarget=0;fillColor=none;points=[[0,0.5],[1,0.5]];portConstraint=eastwest;fontSize=16;" vertex="1" parent="IFmeHHee4sX_I05L71Eq-89">
          <mxGeometry y="40" width="330" height="40" as="geometry" />
        </mxCell>
        <mxCell id="IFmeHHee4sX_I05L71Eq-95" value="3" style="shape=partialRectangle;html=1;whiteSpace=wrap;connectable=0;strokeColor=inherit;overflow=hidden;fillColor=none;top=0;left=0;bottom=0;right=0;pointerEvents=1;fontSize=16;" vertex="1" parent="IFmeHHee4sX_I05L71Eq-94">
          <mxGeometry width="44" height="40" as="geometry">
            <mxRectangle width="44" height="40" as="alternateBounds" />
          </mxGeometry>
        </mxCell>
        <mxCell id="IFmeHHee4sX_I05L71Eq-96" value="Top 3" style="shape=partialRectangle;html=1;whiteSpace=wrap;connectable=0;strokeColor=inherit;overflow=hidden;fillColor=none;top=0;left=0;bottom=0;right=0;pointerEvents=1;fontSize=16;align=left;" vertex="1" parent="IFmeHHee4sX_I05L71Eq-94">
          <mxGeometry x="44" width="220" height="40" as="geometry">
            <mxRectangle width="220" height="40" as="alternateBounds" />
          </mxGeometry>
        </mxCell>
        <mxCell id="IFmeHHee4sX_I05L71Eq-97" value="2200" style="shape=partialRectangle;html=1;whiteSpace=wrap;connectable=0;strokeColor=inherit;overflow=hidden;fillColor=none;top=0;left=0;bottom=0;right=0;pointerEvents=1;fontSize=16;" vertex="1" parent="IFmeHHee4sX_I05L71Eq-94">
          <mxGeometry x="264" width="66" height="40" as="geometry">
            <mxRectangle width="66" height="40" as="alternateBounds" />
          </mxGeometry>
        </mxCell>
        <mxCell id="IFmeHHee4sX_I05L71Eq-98" value="" style="shape=tableRow;horizontal=0;startSize=0;swimlaneHead=0;swimlaneBody=0;strokeColor=inherit;top=0;left=0;bottom=0;right=0;collapsible=0;dropTarget=0;fillColor=none;points=[[0,0.5],[1,0.5]];portConstraint=eastwest;fontSize=16;" vertex="1" parent="IFmeHHee4sX_I05L71Eq-89">
          <mxGeometry y="80" width="330" height="40" as="geometry" />
        </mxCell>
        <mxCell id="IFmeHHee4sX_I05L71Eq-99" value="10" style="shape=partialRectangle;html=1;whiteSpace=wrap;connectable=0;strokeColor=inherit;overflow=hidden;fillColor=none;top=0;left=0;bottom=0;right=0;pointerEvents=1;fontSize=16;" vertex="1" parent="IFmeHHee4sX_I05L71Eq-98">
          <mxGeometry width="44" height="40" as="geometry">
            <mxRectangle width="44" height="40" as="alternateBounds" />
          </mxGeometry>
        </mxCell>
        <mxCell id="IFmeHHee4sX_I05L71Eq-100" value="top 10" style="shape=partialRectangle;html=1;whiteSpace=wrap;connectable=0;strokeColor=inherit;overflow=hidden;fillColor=none;top=0;left=0;bottom=0;right=0;pointerEvents=1;fontSize=16;align=left;" vertex="1" parent="IFmeHHee4sX_I05L71Eq-98">
          <mxGeometry x="44" width="220" height="40" as="geometry">
            <mxRectangle width="220" height="40" as="alternateBounds" />
          </mxGeometry>
        </mxCell>
        <mxCell id="IFmeHHee4sX_I05L71Eq-101" value="1677" style="shape=partialRectangle;html=1;whiteSpace=wrap;connectable=0;strokeColor=inherit;overflow=hidden;fillColor=none;top=0;left=0;bottom=0;right=0;pointerEvents=1;fontSize=16;" vertex="1" parent="IFmeHHee4sX_I05L71Eq-98">
          <mxGeometry x="264" width="66" height="40" as="geometry">
            <mxRectangle width="66" height="40" as="alternateBounds" />
          </mxGeometry>
        </mxCell>
        <mxCell id="IFmeHHee4sX_I05L71Eq-102" value="Edetabeli VÃµitja" style="text;html=1;align=center;verticalAlign=middle;resizable=0;points=[];autosize=1;strokeColor=none;fillColor=none;fontSize=14;" vertex="1" parent="1">
          <mxGeometry x="55" y="750" width="120" height="30" as="geometry" />
        </mxCell>
        <mxCell id="IFmeHHee4sX_I05L71Eq-103" value="Mehed" style="text;html=1;align=center;verticalAlign=middle;resizable=0;points=[];autosize=1;strokeColor=none;fillColor=none;fontSize=14;" vertex="1" parent="1">
          <mxGeometry x="25" y="610" width="70" height="30" as="geometry" />
        </mxCell>
        <mxCell id="IFmeHHee4sX_I05L71Eq-104" value="Vaata kogu edetabelit" style="text;html=1;align=center;verticalAlign=middle;resizable=0;points=[];autosize=1;strokeColor=none;fillColor=none;" vertex="1" parent="1">
          <mxGeometry x="220" y="940" width="140" height="30" as="geometry" />
        </mxCell>
        <mxCell id="IFmeHHee4sX_I05L71Eq-105" value="" style="rounded=1;whiteSpace=wrap;html=1;" vertex="1" parent="1">
          <mxGeometry x="440" y="650" width="320" height="140" as="geometry" />
        </mxCell>
        <mxCell id="IFmeHHee4sX_I05L71Eq-106" value="" style="ellipse;whiteSpace=wrap;html=1;aspect=fixed;" vertex="1" parent="1">
          <mxGeometry x="460" y="660" width="80" height="80" as="geometry" />
        </mxCell>
        <mxCell id="IFmeHHee4sX_I05L71Eq-107" value="2345p" style="text;html=1;align=center;verticalAlign=middle;resizable=0;points=[];autosize=1;strokeColor=none;fillColor=none;fontSize=20;" vertex="1" parent="1">
          <mxGeometry x="620" y="690" width="80" height="40" as="geometry" />
        </mxCell>
        <mxCell id="IFmeHHee4sX_I05L71Eq-108" value="" style="shape=table;startSize=0;container=1;collapsible=0;childLayout=tableLayout;fontSize=16;" vertex="1" parent="1">
          <mxGeometry x="440" y="820" width="330" height="120" as="geometry" />
        </mxCell>
        <mxCell id="IFmeHHee4sX_I05L71Eq-109" value="" style="shape=tableRow;horizontal=0;startSize=0;swimlaneHead=0;swimlaneBody=0;strokeColor=inherit;top=0;left=0;bottom=0;right=0;collapsible=0;dropTarget=0;fillColor=none;points=[[0,0.5],[1,0.5]];portConstraint=eastwest;fontSize=16;" vertex="1" parent="IFmeHHee4sX_I05L71Eq-108">
          <mxGeometry width="330" height="40" as="geometry" />
        </mxCell>
        <mxCell id="IFmeHHee4sX_I05L71Eq-110" value="2" style="shape=partialRectangle;html=1;whiteSpace=wrap;connectable=0;strokeColor=inherit;overflow=hidden;fillColor=none;top=0;left=0;bottom=0;right=0;pointerEvents=1;fontSize=16;" vertex="1" parent="IFmeHHee4sX_I05L71Eq-109">
          <mxGeometry width="44" height="40" as="geometry">
            <mxRectangle width="44" height="40" as="alternateBounds" />
          </mxGeometry>
        </mxCell>
        <mxCell id="IFmeHHee4sX_I05L71Eq-111" value="Top 2" style="shape=partialRectangle;html=1;whiteSpace=wrap;connectable=0;strokeColor=inherit;overflow=hidden;fillColor=none;top=0;left=0;bottom=0;right=0;pointerEvents=1;fontSize=16;align=left;" vertex="1" parent="IFmeHHee4sX_I05L71Eq-109">
          <mxGeometry x="44" width="220" height="40" as="geometry">
            <mxRectangle width="220" height="40" as="alternateBounds" />
          </mxGeometry>
        </mxCell>
        <mxCell id="IFmeHHee4sX_I05L71Eq-112" value="2300" style="shape=partialRectangle;html=1;whiteSpace=wrap;connectable=0;strokeColor=inherit;overflow=hidden;fillColor=none;top=0;left=0;bottom=0;right=0;pointerEvents=1;fontSize=16;" vertex="1" parent="IFmeHHee4sX_I05L71Eq-109">
          <mxGeometry x="264" width="66" height="40" as="geometry">
            <mxRectangle width="66" height="40" as="alternateBounds" />
          </mxGeometry>
        </mxCell>
        <mxCell id="IFmeHHee4sX_I05L71Eq-113" value="" style="shape=tableRow;horizontal=0;startSize=0;swimlaneHead=0;swimlaneBody=0;strokeColor=inherit;top=0;left=0;bottom=0;right=0;collapsible=0;dropTarget=0;fillColor=none;points=[[0,0.5],[1,0.5]];portConstraint=eastwest;fontSize=16;" vertex="1" parent="IFmeHHee4sX_I05L71Eq-108">
          <mxGeometry y="40" width="330" height="40" as="geometry" />
        </mxCell>
        <mxCell id="IFmeHHee4sX_I05L71Eq-114" value="3" style="shape=partialRectangle;html=1;whiteSpace=wrap;connectable=0;strokeColor=inherit;overflow=hidden;fillColor=none;top=0;left=0;bottom=0;right=0;pointerEvents=1;fontSize=16;" vertex="1" parent="IFmeHHee4sX_I05L71Eq-113">
          <mxGeometry width="44" height="40" as="geometry">
            <mxRectangle width="44" height="40" as="alternateBounds" />
          </mxGeometry>
        </mxCell>
        <mxCell id="IFmeHHee4sX_I05L71Eq-115" value="Top 3" style="shape=partialRectangle;html=1;whiteSpace=wrap;connectable=0;strokeColor=inherit;overflow=hidden;fillColor=none;top=0;left=0;bottom=0;right=0;pointerEvents=1;fontSize=16;align=left;" vertex="1" parent="IFmeHHee4sX_I05L71Eq-113">
          <mxGeometry x="44" width="220" height="40" as="geometry">
            <mxRectangle width="220" height="40" as="alternateBounds" />
          </mxGeometry>
        </mxCell>
        <mxCell id="IFmeHHee4sX_I05L71Eq-116" value="2200" style="shape=partialRectangle;html=1;whiteSpace=wrap;connectable=0;strokeColor=inherit;overflow=hidden;fillColor=none;top=0;left=0;bottom=0;right=0;pointerEvents=1;fontSize=16;" vertex="1" parent="IFmeHHee4sX_I05L71Eq-113">
          <mxGeometry x="264" width="66" height="40" as="geometry">
            <mxRectangle width="66" height="40" as="alternateBounds" />
          </mxGeometry>
        </mxCell>
        <mxCell id="IFmeHHee4sX_I05L71Eq-117" value="" style="shape=tableRow;horizontal=0;startSize=0;swimlaneHead=0;swimlaneBody=0;strokeColor=inherit;top=0;left=0;bottom=0;right=0;collapsible=0;dropTarget=0;fillColor=none;points=[[0,0.5],[1,0.5]];portConstraint=eastwest;fontSize=16;" vertex="1" parent="IFmeHHee4sX_I05L71Eq-108">
          <mxGeometry y="80" width="330" height="40" as="geometry" />
        </mxCell>
        <mxCell id="IFmeHHee4sX_I05L71Eq-118" value="10" style="shape=partialRectangle;html=1;whiteSpace=wrap;connectable=0;strokeColor=inherit;overflow=hidden;fillColor=none;top=0;left=0;bottom=0;right=0;pointerEvents=1;fontSize=16;" vertex="1" parent="IFmeHHee4sX_I05L71Eq-117">
          <mxGeometry width="44" height="40" as="geometry">
            <mxRectangle width="44" height="40" as="alternateBounds" />
          </mxGeometry>
        </mxCell>
        <mxCell id="IFmeHHee4sX_I05L71Eq-119" value="top 10" style="shape=partialRectangle;html=1;whiteSpace=wrap;connectable=0;strokeColor=inherit;overflow=hidden;fillColor=none;top=0;left=0;bottom=0;right=0;pointerEvents=1;fontSize=16;align=left;" vertex="1" parent="IFmeHHee4sX_I05L71Eq-117">
          <mxGeometry x="44" width="220" height="40" as="geometry">
            <mxRectangle width="220" height="40" as="alternateBounds" />
          </mxGeometry>
        </mxCell>
        <mxCell id="IFmeHHee4sX_I05L71Eq-120" value="1677" style="shape=partialRectangle;html=1;whiteSpace=wrap;connectable=0;strokeColor=inherit;overflow=hidden;fillColor=none;top=0;left=0;bottom=0;right=0;pointerEvents=1;fontSize=16;" vertex="1" parent="IFmeHHee4sX_I05L71Eq-117">
          <mxGeometry x="264" width="66" height="40" as="geometry">
            <mxRectangle width="66" height="40" as="alternateBounds" />
          </mxGeometry>
        </mxCell>
        <mxCell id="IFmeHHee4sX_I05L71Eq-121" value="Edetabeli VÃµitja" style="text;html=1;align=center;verticalAlign=middle;resizable=0;points=[];autosize=1;strokeColor=none;fillColor=none;fontSize=14;" vertex="1" parent="1">
          <mxGeometry x="465" y="750" width="120" height="30" as="geometry" />
        </mxCell>
        <mxCell id="IFmeHHee4sX_I05L71Eq-122" value="Vaata kogu edetabelit" style="text;html=1;align=center;verticalAlign=middle;resizable=0;points=[];autosize=1;strokeColor=none;fillColor=none;" vertex="1" parent="1">
          <mxGeometry x="630" y="940" width="140" height="30" as="geometry" />
        </mxCell>
        <mxCell id="IFmeHHee4sX_I05L71Eq-123" value="Naised" style="text;html=1;align=center;verticalAlign=middle;resizable=0;points=[];autosize=1;strokeColor=none;fillColor=none;fontSize=14;" vertex="1" parent="1">
          <mxGeometry x="440" y="610" width="70" height="30" as="geometry" />
        </mxCell>
      </root>
    </mxGraphModel>
  </diagram>
  <diagram id="H0FjbeDnhJHUtumAx3MV" name="Leht-2">
    <mxGraphModel dx="1034" dy="666" grid="1" gridSize="10" guides="1" tooltips="1" connect="1" arrows="1" fold="1" page="1" pageScale="1" pageWidth="827" pageHeight="1169" math="0" shadow="0">
      <root>
        <mxCell id="0" />
        <mxCell id="1" parent="0" />
        <mxCell id="3PKa8007AbOeMxiprj3v-1" value="Eesti Orienteerumisliidu edetabel" style="rounded=0;whiteSpace=wrap;html=1;" vertex="1" parent="1">
          <mxGeometry x="40" y="20" width="700" height="60" as="geometry" />
        </mxCell>
        <mxCell id="3PKa8007AbOeMxiprj3v-3" value="2025 Orienteerumisjooksu edetabel - Mehed" style="text;html=1;align=center;verticalAlign=middle;resizable=0;points=[];autosize=1;strokeColor=none;fillColor=none;fontSize=20;" vertex="1" parent="1">
          <mxGeometry x="40" y="110" width="420" height="40" as="geometry" />
        </mxCell>
        <mxCell id="sfUn9ky0m1xYZawpeVvO-1" value="" style="shape=table;startSize=0;container=1;collapsible=0;childLayout=tableLayout;fontSize=16;" vertex="1" parent="1">
          <mxGeometry x="45" y="180" width="330" height="120" as="geometry" />
        </mxCell>
        <mxCell id="sfUn9ky0m1xYZawpeVvO-2" value="" style="shape=tableRow;horizontal=0;startSize=0;swimlaneHead=0;swimlaneBody=0;strokeColor=inherit;top=0;left=0;bottom=0;right=0;collapsible=0;dropTarget=0;fillColor=none;points=[[0,0.5],[1,0.5]];portConstraint=eastwest;fontSize=16;" vertex="1" parent="sfUn9ky0m1xYZawpeVvO-1">
          <mxGeometry width="330" height="40" as="geometry" />
        </mxCell>
        <mxCell id="sfUn9ky0m1xYZawpeVvO-3" value="1" style="shape=partialRectangle;html=1;whiteSpace=wrap;connectable=0;strokeColor=inherit;overflow=hidden;fillColor=none;top=0;left=0;bottom=0;right=0;pointerEvents=1;fontSize=16;" vertex="1" parent="sfUn9ky0m1xYZawpeVvO-2">
          <mxGeometry width="44" height="40" as="geometry">
            <mxRectangle width="44" height="40" as="alternateBounds" />
          </mxGeometry>
        </mxCell>
        <mxCell id="sfUn9ky0m1xYZawpeVvO-4" value="Edetabeli vÃµitjja" style="shape=partialRectangle;html=1;whiteSpace=wrap;connectable=0;strokeColor=inherit;overflow=hidden;fillColor=none;top=0;left=0;bottom=0;right=0;pointerEvents=1;fontSize=16;align=left;" vertex="1" parent="sfUn9ky0m1xYZawpeVvO-2">
          <mxGeometry x="44" width="220" height="40" as="geometry">
            <mxRectangle width="220" height="40" as="alternateBounds" />
          </mxGeometry>
        </mxCell>
        <mxCell id="sfUn9ky0m1xYZawpeVvO-5" value="2345" style="shape=partialRectangle;html=1;whiteSpace=wrap;connectable=0;strokeColor=inherit;overflow=hidden;fillColor=none;top=0;left=0;bottom=0;right=0;pointerEvents=1;fontSize=16;" vertex="1" parent="sfUn9ky0m1xYZawpeVvO-2">
          <mxGeometry x="264" width="66" height="40" as="geometry">
            <mxRectangle width="66" height="40" as="alternateBounds" />
          </mxGeometry>
        </mxCell>
        <mxCell id="sfUn9ky0m1xYZawpeVvO-6" value="" style="shape=tableRow;horizontal=0;startSize=0;swimlaneHead=0;swimlaneBody=0;strokeColor=inherit;top=0;left=0;bottom=0;right=0;collapsible=0;dropTarget=0;fillColor=none;points=[[0,0.5],[1,0.5]];portConstraint=eastwest;fontSize=16;" vertex="1" parent="sfUn9ky0m1xYZawpeVvO-1">
          <mxGeometry y="40" width="330" height="40" as="geometry" />
        </mxCell>
        <mxCell id="sfUn9ky0m1xYZawpeVvO-7" value="3" style="shape=partialRectangle;html=1;whiteSpace=wrap;connectable=0;strokeColor=inherit;overflow=hidden;fillColor=none;top=0;left=0;bottom=0;right=0;pointerEvents=1;fontSize=16;" vertex="1" parent="sfUn9ky0m1xYZawpeVvO-6">
          <mxGeometry width="44" height="40" as="geometry">
            <mxRectangle width="44" height="40" as="alternateBounds" />
          </mxGeometry>
        </mxCell>
        <mxCell id="sfUn9ky0m1xYZawpeVvO-8" value="Top 3" style="shape=partialRectangle;html=1;whiteSpace=wrap;connectable=0;strokeColor=inherit;overflow=hidden;fillColor=none;top=0;left=0;bottom=0;right=0;pointerEvents=1;fontSize=16;align=left;" vertex="1" parent="sfUn9ky0m1xYZawpeVvO-6">
          <mxGeometry x="44" width="220" height="40" as="geometry">
            <mxRectangle width="220" height="40" as="alternateBounds" />
          </mxGeometry>
        </mxCell>
        <mxCell id="sfUn9ky0m1xYZawpeVvO-9" value="2200" style="shape=partialRectangle;html=1;whiteSpace=wrap;connectable=0;strokeColor=inherit;overflow=hidden;fillColor=none;top=0;left=0;bottom=0;right=0;pointerEvents=1;fontSize=16;" vertex="1" parent="sfUn9ky0m1xYZawpeVvO-6">
          <mxGeometry x="264" width="66" height="40" as="geometry">
            <mxRectangle width="66" height="40" as="alternateBounds" />
          </mxGeometry>
        </mxCell>
        <mxCell id="sfUn9ky0m1xYZawpeVvO-10" value="" style="shape=tableRow;horizontal=0;startSize=0;swimlaneHead=0;swimlaneBody=0;strokeColor=inherit;top=0;left=0;bottom=0;right=0;collapsible=0;dropTarget=0;fillColor=none;points=[[0,0.5],[1,0.5]];portConstraint=eastwest;fontSize=16;" vertex="1" parent="sfUn9ky0m1xYZawpeVvO-1">
          <mxGeometry y="80" width="330" height="40" as="geometry" />
        </mxCell>
        <mxCell id="sfUn9ky0m1xYZawpeVvO-11" value="10" style="shape=partialRectangle;html=1;whiteSpace=wrap;connectable=0;strokeColor=inherit;overflow=hidden;fillColor=none;top=0;left=0;bottom=0;right=0;pointerEvents=1;fontSize=16;" vertex="1" parent="sfUn9ky0m1xYZawpeVvO-10">
          <mxGeometry width="44" height="40" as="geometry">
            <mxRectangle width="44" height="40" as="alternateBounds" />
          </mxGeometry>
        </mxCell>
        <mxCell id="sfUn9ky0m1xYZawpeVvO-12" value="top 10" style="shape=partialRectangle;html=1;whiteSpace=wrap;connectable=0;strokeColor=inherit;overflow=hidden;fillColor=none;top=0;left=0;bottom=0;right=0;pointerEvents=1;fontSize=16;align=left;" vertex="1" parent="sfUn9ky0m1xYZawpeVvO-10">
          <mxGeometry x="44" width="220" height="40" as="geometry">
            <mxRectangle width="220" height="40" as="alternateBounds" />
          </mxGeometry>
        </mxCell>
        <mxCell id="sfUn9ky0m1xYZawpeVvO-13" value="1677" style="shape=partialRectangle;html=1;whiteSpace=wrap;connectable=0;strokeColor=inherit;overflow=hidden;fillColor=none;top=0;left=0;bottom=0;right=0;pointerEvents=1;fontSize=16;" vertex="1" parent="sfUn9ky0m1xYZawpeVvO-10">
          <mxGeometry x="264" width="66" height="40" as="geometry">
            <mxRectangle width="66" height="40" as="alternateBounds" />
          </mxGeometry>
        </mxCell>
        <mxCell id="sfUn9ky0m1xYZawpeVvO-15" value="" style="shape=table;startSize=0;container=1;collapsible=0;childLayout=tableLayout;fontSize=16;" vertex="1" parent="1">
          <mxGeometry x="380" y="180" width="180" height="120" as="geometry" />
        </mxCell>
        <mxCell id="sfUn9ky0m1xYZawpeVvO-16" value="" style="shape=tableRow;horizontal=0;startSize=0;swimlaneHead=0;swimlaneBody=0;strokeColor=inherit;top=0;left=0;bottom=0;right=0;collapsible=0;dropTarget=0;fillColor=none;points=[[0,0.5],[1,0.5]];portConstraint=eastwest;fontSize=16;" vertex="1" parent="sfUn9ky0m1xYZawpeVvO-15">
          <mxGeometry width="180" height="40" as="geometry" />
        </mxCell>
        <mxCell id="sfUn9ky0m1xYZawpeVvO-17" value="900" style="shape=partialRectangle;html=1;whiteSpace=wrap;connectable=0;strokeColor=inherit;overflow=hidden;fillColor=none;top=0;left=0;bottom=0;right=0;pointerEvents=1;fontSize=16;" vertex="1" parent="sfUn9ky0m1xYZawpeVvO-16">
          <mxGeometry width="60" height="40" as="geometry">
            <mxRectangle width="60" height="40" as="alternateBounds" />
          </mxGeometry>
        </mxCell>
        <mxCell id="sfUn9ky0m1xYZawpeVvO-18" value="876" style="shape=partialRectangle;html=1;whiteSpace=wrap;connectable=0;strokeColor=inherit;overflow=hidden;fillColor=none;top=0;left=0;bottom=0;right=0;pointerEvents=1;fontSize=16;" vertex="1" parent="sfUn9ky0m1xYZawpeVvO-16">
          <mxGeometry x="60" width="60" height="40" as="geometry">
            <mxRectangle width="60" height="40" as="alternateBounds" />
          </mxGeometry>
        </mxCell>
        <mxCell id="sfUn9ky0m1xYZawpeVvO-19" value="800" style="shape=partialRectangle;html=1;whiteSpace=wrap;connectable=0;strokeColor=inherit;overflow=hidden;fillColor=none;top=0;left=0;bottom=0;right=0;pointerEvents=1;fontSize=16;" vertex="1" parent="sfUn9ky0m1xYZawpeVvO-16">
          <mxGeometry x="120" width="60" height="40" as="geometry">
            <mxRectangle width="60" height="40" as="alternateBounds" />
          </mxGeometry>
        </mxCell>
        <mxCell id="sfUn9ky0m1xYZawpeVvO-20" value="" style="shape=tableRow;horizontal=0;startSize=0;swimlaneHead=0;swimlaneBody=0;strokeColor=inherit;top=0;left=0;bottom=0;right=0;collapsible=0;dropTarget=0;fillColor=none;points=[[0,0.5],[1,0.5]];portConstraint=eastwest;fontSize=16;" vertex="1" parent="sfUn9ky0m1xYZawpeVvO-15">
          <mxGeometry y="40" width="180" height="40" as="geometry" />
        </mxCell>
        <mxCell id="sfUn9ky0m1xYZawpeVvO-21" value="874" style="shape=partialRectangle;html=1;whiteSpace=wrap;connectable=0;strokeColor=inherit;overflow=hidden;fillColor=none;top=0;left=0;bottom=0;right=0;pointerEvents=1;fontSize=16;" vertex="1" parent="sfUn9ky0m1xYZawpeVvO-20">
          <mxGeometry width="60" height="40" as="geometry">
            <mxRectangle width="60" height="40" as="alternateBounds" />
          </mxGeometry>
        </mxCell>
        <mxCell id="sfUn9ky0m1xYZawpeVvO-22" value="709" style="shape=partialRectangle;html=1;whiteSpace=wrap;connectable=0;strokeColor=inherit;overflow=hidden;fillColor=none;top=0;left=0;bottom=0;right=0;pointerEvents=1;fontSize=16;" vertex="1" parent="sfUn9ky0m1xYZawpeVvO-20">
          <mxGeometry x="60" width="60" height="40" as="geometry">
            <mxRectangle width="60" height="40" as="alternateBounds" />
          </mxGeometry>
        </mxCell>
        <mxCell id="sfUn9ky0m1xYZawpeVvO-23" value="700" style="shape=partialRectangle;html=1;whiteSpace=wrap;connectable=0;strokeColor=inherit;overflow=hidden;fillColor=none;top=0;left=0;bottom=0;right=0;pointerEvents=1;fontSize=16;" vertex="1" parent="sfUn9ky0m1xYZawpeVvO-20">
          <mxGeometry x="120" width="60" height="40" as="geometry">
            <mxRectangle width="60" height="40" as="alternateBounds" />
          </mxGeometry>
        </mxCell>
        <mxCell id="sfUn9ky0m1xYZawpeVvO-24" value="" style="shape=tableRow;horizontal=0;startSize=0;swimlaneHead=0;swimlaneBody=0;strokeColor=inherit;top=0;left=0;bottom=0;right=0;collapsible=0;dropTarget=0;fillColor=none;points=[[0,0.5],[1,0.5]];portConstraint=eastwest;fontSize=16;" vertex="1" parent="sfUn9ky0m1xYZawpeVvO-15">
          <mxGeometry y="80" width="180" height="40" as="geometry" />
        </mxCell>
        <mxCell id="sfUn9ky0m1xYZawpeVvO-25" value="600" style="shape=partialRectangle;html=1;whiteSpace=wrap;connectable=0;strokeColor=inherit;overflow=hidden;fillColor=none;top=0;left=0;bottom=0;right=0;pointerEvents=1;fontSize=16;" vertex="1" parent="sfUn9ky0m1xYZawpeVvO-24">
          <mxGeometry width="60" height="40" as="geometry">
            <mxRectangle width="60" height="40" as="alternateBounds" />
          </mxGeometry>
        </mxCell>
        <mxCell id="sfUn9ky0m1xYZawpeVvO-26" value="566" style="shape=partialRectangle;html=1;whiteSpace=wrap;connectable=0;strokeColor=inherit;overflow=hidden;fillColor=none;top=0;left=0;bottom=0;right=0;pointerEvents=1;fontSize=16;" vertex="1" parent="sfUn9ky0m1xYZawpeVvO-24">
          <mxGeometry x="60" width="60" height="40" as="geometry">
            <mxRectangle width="60" height="40" as="alternateBounds" />
          </mxGeometry>
        </mxCell>
        <mxCell id="sfUn9ky0m1xYZawpeVvO-27" value="" style="shape=partialRectangle;html=1;whiteSpace=wrap;connectable=0;strokeColor=inherit;overflow=hidden;fillColor=none;top=0;left=0;bottom=0;right=0;pointerEvents=1;fontSize=16;" vertex="1" parent="sfUn9ky0m1xYZawpeVvO-24">
          <mxGeometry x="120" width="60" height="40" as="geometry">
            <mxRectangle width="60" height="40" as="alternateBounds" />
          </mxGeometry>
        </mxCell>
        <mxCell id="sfUn9ky0m1xYZawpeVvO-29" style="edgeStyle=orthogonalEdgeStyle;rounded=0;orthogonalLoop=1;jettySize=auto;html=1;" edge="1" parent="1" source="sfUn9ky0m1xYZawpeVvO-28" target="sfUn9ky0m1xYZawpeVvO-16">
          <mxGeometry relative="1" as="geometry" />
        </mxCell>
        <mxCell id="sfUn9ky0m1xYZawpeVvO-28" value="Tooltip - vÃµistluse nimi,&lt;div&gt;Vaade WRSi lehele tulemustele&lt;/div&gt;" style="ellipse;shape=cloud;whiteSpace=wrap;html=1;" vertex="1" parent="1">
          <mxGeometry x="560" y="90" width="250" height="80" as="geometry" />
        </mxCell>
        <mxCell id="sfUn9ky0m1xYZawpeVvO-31" style="edgeStyle=orthogonalEdgeStyle;rounded=0;orthogonalLoop=1;jettySize=auto;html=1;" edge="1" parent="1" source="sfUn9ky0m1xYZawpeVvO-30">
          <mxGeometry relative="1" as="geometry">
            <mxPoint x="129.9999999999999" y="310" as="targetPoint" />
          </mxGeometry>
        </mxCell>
        <mxCell id="sfUn9ky0m1xYZawpeVvO-30" value="Viide isiku vaatele kus kÃµik tema valitud hooaja edetabeli tulemused" style="ellipse;shape=cloud;whiteSpace=wrap;html=1;" vertex="1" parent="1">
          <mxGeometry x="160" y="320" width="400" height="140" as="geometry" />
        </mxCell>
      </root>
    </mxGraphModel>
  </diagram>
</mxfile>
